<svg width="512" height="512" viewBox="0 0 512 512"  xmlns="http://www.w3.org/2000/svg" xml:space="preserve" version="1.1">

 <g>
  <title>Layer 1</title>
  <g id="svg_1">
   <g id="svg_2">
    <path fill="#2f6d43" id="svg_3" d="m406.069,70.621l0,-70.621l-406.069,0l0,432.552c0,43.807 35.641,79.448 79.448,79.448l353.103,0c43.808,0 79.449,-35.641 79.449,-79.448l0,-361.931l-105.931,0zm-70.621,317.793l-264.827,0l0,-52.966l264.828,0l0,52.966l-0.001,0zm0,-105.931l-264.827,0l0,-52.966l264.828,0l0,52.966l-0.001,0zm0,-158.897l0,52.966l-264.827,0l0,-52.966l0,-52.965l264.828,0l0,52.965l-0.001,0zm123.586,308.966c0,14.603 -11.88,26.483 -26.483,26.483c-14.603,0 -26.483,-11.88 -26.483,-26.483l0,-308.966l52.966,0l0,308.966z"/>
   </g>
  </g>
 </g>
</svg>
